<svg width="472" height="215" viewBox="0 0 472 215" fill="none" xmlns="http://www.w3.org/2000/svg">
<path d="M0.494142 102L25.9941 104.25V167.5C24.9941 167.833 23.4108 168.25 21.2441 168.75C19.0775 169.25 16.7441 169.5 14.2441 169.5C9.57747 169.5 6.07747 168.583 3.74414 166.75C1.57748 164.917 0.494142 161.917 0.494142 157.75V102ZM25.9941 117L0.494142 114.75V5.74999C1.49414 5.41666 3.07747 4.99999 5.24414 4.49999C7.41081 4 9.66081 3.75 11.9941 3.75C16.8275 3.75 20.3275 4.66666 22.4941 6.49999C24.8275 8.16666 25.9941 11.1667 25.9941 15.5V117ZM62.459 124.25V103H88.209V123.5C88.209 133.167 90.709 140.167 95.709 144.5C100.876 148.667 107.959 150.75 116.959 150.75C122.959 150.75 128.042 150.167 132.209 149C136.376 147.667 139.542 146.333 141.709 145V103H167.459V146C167.459 149.667 166.876 152.667 165.709 155C164.542 157.333 162.209 159.583 158.709 161.75C154.542 164.25 148.876 166.5 141.709 168.5C134.542 170.5 126.209 171.5 116.709 171.5C105.542 171.5 95.8757 169.833 87.709 166.5C79.5423 163.167 73.2923 158 68.959 151C64.6257 144 62.459 135.083 62.459 124.25ZM167.459 115.5H141.709V51.5C142.876 51.1667 144.542 50.75 146.709 50.25C148.876 49.75 151.126 49.5 153.459 49.5C158.292 49.5 161.792 50.4167 163.959 52.25C166.292 53.9167 167.459 57 167.459 61.5V115.5ZM88.209 115.5H62.459V51.5C63.6257 51.1667 65.2923 50.75 67.459 50.25C69.6257 49.75 71.959 49.5 74.459 49.5C79.1257 49.5 82.5423 50.4167 84.709 52.25C87.0423 53.9167 88.209 57 88.209 61.5V115.5ZM254.613 171.25C265.78 171.25 275.697 169 284.363 164.5C293.197 159.833 300.03 152.917 304.863 143.75C309.863 134.417 312.363 122.833 312.363 109C312.363 94.6667 309.697 83 304.363 74C299.03 65 291.697 58.3333 282.363 54C273.197 49.6667 262.863 47.5 251.363 47.5C242.863 47.5 235.197 48.5833 228.363 50.75C221.697 52.75 216.03 55.1667 211.363 58C207.863 60.1667 205.363 62.4167 203.863 64.75C202.53 66.9167 201.863 69.75 201.863 73.25V155.5H227.613V74.75C230.447 73.0833 233.78 71.5833 237.613 70.25C241.447 68.9167 246.03 68.25 251.363 68.25C257.697 68.25 263.53 69.5833 268.863 72.25C274.197 74.9167 278.447 79.25 281.613 85.25C284.78 91.0833 286.363 99 286.363 109C286.363 123.333 283.113 133.833 276.613 140.5C270.28 147.167 261.697 150.5 250.863 150.5C244.363 150.5 238.697 149.417 233.863 147.25C229.197 144.917 225.28 142.333 222.113 139.5V162.25C225.28 164.583 229.78 166.667 235.613 168.5C241.447 170.333 247.78 171.25 254.613 171.25ZM227.613 148L201.863 147.5V202.75C201.863 207.083 203.03 210.167 205.363 212C207.697 213.833 211.197 214.75 215.863 214.75C218.363 214.75 220.613 214.5 222.613 214C224.78 213.667 226.447 213.25 227.613 212.75V148ZM339.279 15.25C339.279 10.9167 340.779 7.33333 343.779 4.49999C346.779 1.66666 350.446 0.249999 354.779 0.249999C359.446 0.249999 363.196 1.66666 366.029 4.49999C368.863 7.33333 370.279 10.9167 370.279 15.25C370.279 19.4167 368.863 23 366.029 26C363.196 28.8333 359.446 30.25 354.779 30.25C350.446 30.25 346.779 28.8333 343.779 26C340.779 23 339.279 19.4167 339.279 15.25ZM342.029 102H367.779V167.5C366.613 167.833 364.946 168.25 362.779 168.75C360.779 169.25 358.529 169.5 356.029 169.5C351.363 169.5 347.863 168.583 345.529 166.75C343.196 164.917 342.029 161.917 342.029 157.75V102ZM367.779 114.75H342.029V51.75C343.196 51.4167 344.863 51.0833 347.029 50.75C349.196 50.25 351.529 50 354.029 50C358.696 50 362.113 50.9167 364.279 52.75C366.613 54.4167 367.779 57.4167 367.779 61.75V114.75ZM404.023 102H429.523V134C429.523 140 431.273 144.25 434.773 146.75C438.273 149.25 443.19 150.5 449.523 150.5C452.19 150.5 455.19 150.083 458.523 149.25C461.857 148.417 464.607 147.417 466.773 146.25C467.94 147.417 468.94 148.917 469.773 150.75C470.773 152.417 471.273 154.333 471.273 156.5C471.273 160.833 469.023 164.417 464.523 167.25C460.19 169.917 453.607 171.25 444.773 171.25C432.44 171.25 422.523 168.5 415.023 163C407.69 157.5 404.023 148.333 404.023 135.5V102ZM418.523 74V53.5H468.273C468.94 54.5 469.523 55.9167 470.023 57.75C470.69 59.5833 471.023 61.5 471.023 63.5C471.023 67 470.19 69.6667 468.523 71.5C467.023 73.1667 464.857 74 462.023 74H418.523ZM429.523 109H404.023V18.75C405.023 18.4167 406.607 18 408.773 17.5C410.94 17 413.273 16.75 415.773 16.75C420.44 16.75 423.857 17.6667 426.023 19.5C428.357 21.3333 429.523 24.3333 429.523 28.5V109Z" fill="#570AF0"/>
</svg>
