<svg id="Layer_1" data-name="Layer 1" xmlns="http://www.w3.org/2000/svg" viewBox="0 0 1280 925.13"><defs><style>.cls-1{fill:#1b1b1b;}</style></defs><path class="cls-1" d="M1220.3,663.87q-119-90.89-238.7-181.36c-13.42-10.17-26.43-19.93-40.26-30.1,1.63-3.25,2.85-5.69,4.07-7.72,37.41-62.22,75.23-124.43,112.23-186.65,22-37,33.35-76.45,26.84-120-6.51-43.91-26.84-80.11-63-106.54C955.58-16.85,866.52-7.9,808,47,753.88,97.83,700.21,149.88,646.53,201.52c-5.29,5.29-8.54,6.1-14.23.41-26-26.44-52.86-52.05-79.7-77.67-28.88-27.65-57.34-56.12-87.84-82.14C427.35,10.4,383-4.24,333.42,1.45c-58.56,6.92-99.63,39-125.24,90.68C183,142.56,187,193.39,213.46,241.78c24.81,46.35,53.27,91.08,80.52,136.63,14.23,24,28.87,48,43.91,72.79-3.25,2.44-5.69,4.88-8.54,7.32C238.67,527.64,147.58,596,57.72,665.9,12.18,701.28-6.53,749.26,2,806.6c11.79,76.45,91.9,131.75,167.53,115.08,53.68-11.8,106.14-28.88,157.37-49.61,41.89-16.68,83-34.57,120-60.19,70.35-48.39,93.12-124,75.23-202.5-10.57-44.33-33.35-83.36-54.9-122.81-3.66-6.5-3.66-10.16,2.44-14.64,54.49-43.1,109-86.61,163.07-129.71,5.28-4.48,8.53-3.66,13.82,0Q728.27,407.49,810,472.34c4.47,3.66,5.29,6.1,2.85,11-7.32,12.2-13.83,24.4-20.34,36.6-28.46,51.64-47.17,105.72-40.25,165.9,4.47,39.86,20.33,74,49.61,101.66,23.18,22,51.64,36.6,79.7,51.24,67.09,35,137.85,61,210.64,80.11,39,10.57,77.26,8.54,113-11.39C1298,855.39,1306.1,729.34,1220.3,663.87ZM400.51,726.49c-23.17,15.45-47.57,30.09-72.78,41.88C273.64,794,216.31,811.88,158.16,826.93c-30.91,8.13-57.74-8.54-63.44-39-4.06-20.74,6.51-35.78,21.55-47.57,33.35-26.44,66.69-52.46,100.44-78.49,53.27-40.25,106.54-80.1,160.22-120.36,2.44-1.63,5.29-3.26,10.16-6.91,10.58,22,20.74,42.29,30.1,63s13.82,42.7,14.64,65.47C433.05,690.3,422.07,711.85,400.51,726.49ZM563.17,278.37C516.41,315,469.24,352,422.88,389c-6.91,5.69-9.35,4.47-13.83-2.85-30.9-52.05-62.62-104.1-93.52-156.55C307,215.35,298,201.11,291.94,186.07c-11.38-26.84-2.84-57.75,19.11-76.86,20.34-17.48,52.05-20.74,76.45-5.28,14.23,8.54,26.84,19.92,38.63,31.31C472.49,178.75,518,222.67,564,267c1.63,1.63,2.85,3.25,6.1,6.91C567.64,275.53,565.2,276.75,563.17,278.37Zm151.27-1.62c8.95-9.76,17.49-19.11,26-28.06,35.38-36.6,70.76-73.2,106.54-109A278.84,278.84,0,0,1,888.48,106c26.84-18.3,59.37-14.64,82.55,6.91a66.46,66.46,0,0,1,11.38,81.74Q925.08,292.2,867.33,390.2c-.81,1.22-2,2.44-3.65,4.47C814.07,355.63,764.86,316.6,714.44,276.75Zm409.08,549.77c-63.44-17.48-126.87-36.19-186.24-64.65-17.49-8.13-34.57-18.71-50.83-29.28-36.6-24.81-47.17-59.37-37-101.25,8.54-34.16,26-64.25,44.33-95.16,17.08,13,32.93,25.21,48.79,37.41q109.8,83.56,219.59,167.54c13.42,10.17,22.36,23.58,21.55,41.47C1182.07,813.1,1153.2,834.66,1123.52,826.52Z"/></svg>